PathFileType	4	(X/Y/Z)	Run_500 01
DataRate	CameraRate	NumFrames	NumMarkers	Units	OrigDataRate	OrigDataStartFrame	OrigNumFrames
120	120	5	42	mm	120	2	128
Frame#	Time	RASI			LPSI			RPSI			RTH3			LTH1			LTH2			LTH3			RTB1			RTB2			RTB3			LTB1			LTB2			LTB3			RCAL			RTOE			RMT5			LCAL			LTOE			LMT5			LACR			RACR			CLAV			C7			RUA1			RUA2			RUA3			RLEL			LUA1			LUA2			LUA3			LLEL			LMEL			RFAsuperior			RFAradius			RFAulna			LFAsuperior			LFAradius			LFAulna			LASI			RTH1			RMEL			RTH2		
		X1	Y1	Z1	X2	Y2	Z2	X3	Y3	Z3	X4	Y4	Z4	X5	Y5	Z5	X6	Y6	Z6	X7	Y7	Z7	X8	Y8	Z8	X9	Y9	Z9	X10	Y10	Z10	X11	Y11	Z11	X12	Y12	Z12	X13	Y13	Z13	X14	Y14	Z14	X15	Y15	Z15	X16	Y16	Z16	X17	Y17	Z17	X18	Y18	Z18	X19	Y19	Z19	X20	Y20	Z20	X21	Y21	Z21	X22	Y22	Z22	X23	Y23	Z23	X24	Y24	Z24	X25	Y25	Z25	X26	Y26	Z26	X27	Y27	Z27	X28	Y28	Z28	X29	Y29	Z29	X30	Y30	Z30	X31	Y31	Z31	X32	Y32	Z32	X33	Y33	Z33	X34	Y34	Z34	X35	Y35	Z35	X36	Y36	Z36	X37	Y37	Z37	X38	Y38	Z38	X39	Y39	Z39	X40	Y40	Z40	X41	Y41	Z41	X42	Y42	Z42	

2	  0.016667	1029.106827	859.652032	-299.745669	845.623835	998.248989	-350.059185	859.694627	984.016612	-253.952540	972.070501	523.630786	-155.717993	982.310895	784.644127	-496.491941	1067.591101	697.750362	-471.524668	1047.829091	577.504250	-430.617148	857.537873	451.751258	-228.372376	817.418555	517.107899	-173.811391	759.521870	528.653021	-241.734255	1105.917552	377.333501	-324.806666	1053.261069	304.721306	-392.429034	1046.736323	216.672704	-306.699292	679.678403	700.063384	-264.129896	546.330005	536.362374	-279.582347	545.123471	569.004532	-187.545961	905.448482	109.691489	-290.485114	1108.071661	 73.848068	-262.822558	1094.361665	 61.321024	-353.772257	1014.451395	1404.744746	-529.026777	1009.770911	1413.312350	-130.400794	1070.163599	1402.010938	-308.120749	947.499066	1469.495152	-345.810815	928.780649	1300.971029	-72.678483	855.845879	1314.229631	-88.163158	871.598480	1237.413917	-40.298719	819.210747	1189.908598	-14.717638	936.859670	1289.423865	-593.216729	858.796231	1264.113861	-593.336253	910.687789	1206.786297	-613.339690	845.826585	1154.098280	-643.003280	802.219528	1154.421326	-567.085864	876.678041	1074.214592	-22.495932	907.570214	967.422446	-74.638095	874.538986	951.901568	-13.314839	947.422476	1079.250304	-614.518181	1033.711989	1050.344036	-521.002166	1021.391149	1006.929426	-573.539011	1000.823393	968.095368	-440.607998	972.741660	774.286770	-148.278144	782.258920	1174.231282	-87.307712	  0.000000	  0.000000	 -0.000000	
3	  0.025000	1026.169762	900.858804	-251.274003	843.467552	998.005224	-350.920691	856.636819	983.838659	-254.419029	997.119618	524.260422	-153.576587	973.134754	782.161084	-496.613028	1057.124289	695.041605	-472.301048	1033.586592	572.320730	-430.279655	888.376352	449.363379	-227.320536	846.620682	513.422377	-171.619760	787.834920	522.821000	-239.025312	1080.389957	369.325975	-325.101116	1025.436952	298.715220	-392.295862	1014.813800	211.629152	-306.460912	700.762210	694.604837	-264.084394	576.160652	523.800334	-276.735694	576.220218	555.861746	-184.354227	867.192937	110.480945	-291.463206	1069.559180	 73.270432	-262.825268	1055.765398	 60.906825	-353.993547	1018.757333	1400.442615	-528.288045	1005.018548	1410.448155	-129.985458	1069.450965	1398.980384	-306.351345	947.630450	1466.467147	-346.673561	921.228280	1299.089030	-73.812920	849.281311	1311.759486	-93.450468	862.015577	1236.552401	-42.797338	808.649378	1189.076626	-18.464969	944.989865	1283.525158	-592.971534	867.456946	1256.593855	-594.787308	921.635954	1200.799051	-613.857410	859.760295	1145.200299	-645.326321	812.616578	1144.387162	-571.560901	860.970535	1070.444669	-21.373828	887.252308	960.547882	-69.836212	851.674204	948.424362	 -9.112771	962.354451	1072.981381	-613.191340	1045.857427	1048.454097	-517.356434	1036.282549	1003.411664	-569.281411	998.206289	967.055991	-441.569755	976.121083	771.994076	-148.469679	774.316039	1172.574290	-92.146454	  0.000000	  0.000000	 -0.000000	
4	  0.033333	1023.164999	927.627126	-219.083748	841.561902	997.663236	-351.911062	853.363795	983.395386	-255.271727	1022.055017	527.116072	-152.221663	964.525406	779.967627	-496.627949	1047.652485	691.907965	-472.554659	1018.462519	567.421181	-429.989520	918.674102	448.448113	-227.005039	874.994435	510.484510	-170.186146	815.525597	517.752309	-238.792503	1054.989447	361.108650	-324.971150	997.744814	292.502449	-391.695689	982.434233	207.086561	-306.068299	719.445111	687.722548	-263.922269	605.713626	509.229367	-274.053101	606.621244	540.824846	-181.474808	829.352528	111.426817	-292.271773	1031.458358	 72.821593	-262.918104	1017.557717	 60.554104	-354.184723	1022.921902	1397.262377	-527.335779	1000.062904	1408.341069	-129.520305	1068.624734	1396.640007	-304.387142	947.631352	1464.212027	-347.417284	913.558143	1297.979083	-74.991672	842.746158	1310.456309	-98.595289	852.390723	1236.634499	-45.322179	798.004770	1189.390324	-22.272178	952.640909	1278.878924	-592.773443	875.973308	1249.998753	-595.750828	932.396041	1195.823594	-614.213418	873.488432	1137.635117	-647.167738	823.540386	1135.609800	-575.320920	845.343412	1068.106213	-20.631565	867.208448	955.456079	-65.857937	829.316088	946.503809	 -5.806939	977.193664	1068.302971	-611.235899	1057.926082	1048.045378	-513.059741	1051.240650	1001.544289	-564.453440	995.985856	966.107479	-442.338847	978.356722	770.649652	-148.592822	766.231584	1172.095081	-96.936017	  0.000000	  0.000000	 -0.000000	
5	  0.041667	1020.116499	935.853286	-208.025253	840.142230	997.302582	-353.182449	850.007072	982.777379	-256.764429	1046.535976	533.526632	-152.084485	957.126598	778.196569	-496.565593	1039.272265	687.798351	-472.083731	1002.045577	562.989012	-429.805364	948.042545	449.952282	-227.871307	901.968954	508.712241	-169.972124	842.280934	513.778782	-242.270668	1029.516272	353.051915	-324.381657	969.993310	286.427848	-390.593029	949.466105	203.425353	-305.524800	734.382533	678.372611	-263.562820	634.917059	491.514120	-271.649451	635.832750	522.794279	-179.141627	792.178126	112.535514	-292.830392	994.026495	 72.533405	-263.170907	980.004953	 60.293115	-354.373437	1026.907477	1395.884809	-526.083549	994.798099	1407.482738	-128.982038	1067.616175	1395.484980	-302.142193	947.472549	1463.260575	-347.998174	905.690320	1298.182641	-76.238760	836.147846	1310.996718	-103.408713	842.714512	1238.223013	-47.873932	787.233283	1191.497908	-26.178914	959.631036	1276.214618	-592.564830	884.229125	1244.934215	-596.097262	942.823140	1192.557832	-614.278608	886.845911	1132.204357	-648.258295	835.025851	1128.922795	-577.976913	829.904267	1068.084292	-20.528166	847.759844	953.251130	-63.263172	807.939253	947.085060	 -3.965683	991.767339	1066.209712	-608.333415	1069.727058	1050.034830	-507.755945	1066.185283	1002.399352	-558.730423	994.465819	965.301282	-442.717035	979.043095	770.912639	-148.632658	757.865758	1173.507034	-101.630901	 -0.000000	 -0.000000	  0.000000	
6	  0.050000	1017.148612	932.578699	-210.637141	839.416235	997.246033	-354.895469	847.080243	982.535987	-258.925293	1069.983324	543.589995	-153.152439	951.431383	776.802304	-496.552565	1030.900031	682.315542	-471.121774	984.418354	559.172125	-429.752946	976.297280	454.021378	-229.902117	927.360471	508.114303	-170.963440	868.089455	510.568266	-248.568056	1003.453197	346.091729	-323.737509	941.658884	281.397323	-389.457210	916.157113	200.861625	-305.084973	745.696300	666.005444	-262.989953	664.025329	470.663375	-269.585200	663.822650	501.710765	-177.430245	755.707886	113.714349	-293.249847	957.302961	 72.377400	-263.638788	943.161411	 60.096377	-354.631558	1030.790104	1396.424615	-524.590901	989.238618	1408.034372	-128.397472	1066.413519	1395.741931	-299.667701	947.205842	1463.776113	-348.451613	897.613557	1299.932203	-77.553636	829.305913	1313.437663	-107.694291	833.020292	1241.391844	-50.444107	776.352223	1195.433611	-30.203519	966.149519	1275.579254	-592.192332	892.183552	1241.620049	-596.103298	952.847283	1191.254539	-613.977042	899.740473	1129.033347	-648.602917	846.589239	1124.572521	-579.569477	814.813801	1070.547092	-21.193614	829.277466	954.140680	-62.234400	787.936171	950.302261	 -3.730353	1005.841438	1066.905571	-604.553591	1080.975324	1054.618214	-501.494602	1080.866556	1006.265166	-552.122786	993.839340	964.662829	-442.567046	978.753209	773.062415	-148.637306	749.128389	1176.951907	-106.233921	 -0.000000	 -0.000000	  0.000000	
